<?xml version="1.0" standalone="no"?>
<!DOCTYPE svg PUBLIC "-//W3C//DTD SVG 20010904//EN"
 "http://www.w3.org/TR/2001/REC-SVG-20010904/DTD/svg10.dtd">
<svg version="1.0" xmlns="http://www.w3.org/2000/svg"
 width="140.000000pt" height="140.000000pt" viewBox="0 0 140.000000 140.000000"
 preserveAspectRatio="xMidYMid meet">
<metadata>
Created by potrace 1.14, written by Peter Selinger 2001-2017
</metadata>
<g transform="translate(0.000000,140.000000) scale(0.100000,-0.100000)"
fill="#000000" stroke="none">
<path d="M654 1004 c5 -13 1 -14 -25 -9 -24 6 -30 4 -27 -6 7 -22 69 -59 98
-59 30 0 91 37 98 59 3 10 -2 12 -22 7 -19 -5 -26 -3 -26 9 0 11 -12 15 -51
15 -42 0 -50 -3 -45 -16z"/>
<path d="M518 813 c12 -2 30 -2 40 0 9 3 -1 5 -23 4 -22 0 -30 -2 -17 -4z"/>
<path d="M848 813 c12 -2 30 -2 40 0 9 3 -1 5 -23 4 -22 0 -30 -2 -17 -4z"/>
<path d="M315 670 c-7 -102 0 -135 29 -124 10 4 15 -15 20 -68 7 -81 23 -111
77 -143 31 -18 52 -20 259 -20 207 0 228 2 259 20 55 33 73 65 79 144 3 44 9
71 16 70 33 -4 36 2 36 65 0 60 -12 93 -23 64 -3 -7 -10 0 -18 17 l-12 30 -7
-35 c-5 -21 -8 -27 -10 -15 -3 27 -17 -33 -25 -110 -6 -51 -9 -57 -20 -42 -14
19 -105 25 -105 6 0 -5 -10 -3 -22 5 -18 13 -51 16 -150 16 -119 0 -129 -1
-149 -22 -17 -18 -21 -19 -16 -5 6 15 -1 17 -48 17 -53 0 -55 -1 -63 -32 -7
-28 -10 -18 -16 60 -4 51 -10 100 -13 109 -6 15 -7 14 -14 -3 -6 -15 -8 -12
-8 13 -1 43 -18 83 -35 83 -10 0 -16 -24 -21 -100z m35 51 c10 -21 4 -51 -11
-51 -5 0 -9 16 -9 35 0 40 5 43 20 16z m252 -218 c8 -32 -1 -44 -23 -30 -22
13 -25 33 -6 40 21 9 25 8 29 -10z m84 -5 c8 -25 -3 -38 -32 -38 -20 0 -24 5
-24 29 0 25 4 29 25 27 14 0 28 -9 31 -18z m84 -9 c0 -24 -4 -29 -24 -29 -42
0 -43 54 0 56 20 2 24 -3 24 -27z m54 25 c22 -8 20 -27 -4 -42 -18 -11 -20
-10 -20 18 0 32 1 33 24 24z m-407 -76 c-3 -7 -5 -2 -5 12 0 14 2 19 5 13 2
-7 2 -19 0 -25z m361 -75 c-43 -2 -113 -2 -155 0 -43 1 -8 3 77 3 85 0 120 -2
78 -3z"/>
<path d="M1047 763 c-13 -13 -7 -35 8 -29 10 4 15 -1 16 -17 l0 -22 9 23 c15
36 -9 69 -33 45z"/>
<path d="M445 708 c10 -35 52 -68 86 -68 41 0 66 15 84 50 19 37 19 40 -4 40
-12 0 -21 -9 -25 -24 -11 -46 -90 -47 -102 -1 -4 16 -13 25 -26 25 -15 0 -18
-5 -13 -22z"/>
<path d="M780 711 c0 -10 11 -30 25 -45 47 -50 128 -28 150 42 10 33 -21 29
-37 -5 -22 -45 -92 -44 -104 2 -7 29 -34 34 -34 6z"/>
<path d="M690 714 c0 -3 7 -12 15 -20 23 -23 19 -54 -6 -54 -18 0 -20 4 -15
25 10 40 -8 29 -32 -20 -12 -25 -22 -48 -22 -50 0 -3 32 -5 70 -5 39 0 70 2
70 5 0 10 -46 101 -57 113 -12 13 -23 16 -23 6z m23 -91 c-7 -2 -19 -2 -25 0
-7 3 -2 5 12 5 14 0 19 -2 13 -5z"/>
</g>
</svg>
